<?xml version="1.0" encoding="UTF-8"?>
<!DOCTYPE svg PUBLIC "-//W3C//DTD SVG 1.1//EN" "http://www.w3.org/Graphics/SVG/1.1/DTD/svg11.dtd">
<!-- Creator: CorelDRAW X6 -->
<svg xmlns="http://www.w3.org/2000/svg" xml:space="preserve" width="1.15278in" height="0.694441in" version="1.1" style="shape-rendering:geometricPrecision; text-rendering:geometricPrecision; image-rendering:optimizeQuality; fill-rule:evenodd; clip-rule:evenodd"
viewBox="0 0 1153 694"
 xmlns:xlink="http://www.w3.org/1999/xlink">
 <defs>
  <style type="text/css">
   <![CDATA[
    .str0 {stroke:#88B0C1;stroke-width:8.78346}
    .fil1 {fill:none}
    .fil0 {fill:#012B46}
    .fil3 {fill:#88B0C1}
    .fil2 {fill:#88B0C1;fill-rule:nonzero}
   ]]>
  </style>
 </defs>
 <g id="Layer_x0020_1">
  <metadata id="CorelCorpID_0Corel-Layer"/>
  <path class="fil0" d="M21 130l0 274 64 0 0 -274 -64 0zm64 -24l0 -57 -64 0 0 57 64 0z"/>
  <path class="fil0" d="M610 348c-13,14 -24,20 -38,20 -17,0 -31,-11 -31,-66l0 -58c0,-54 14,-66 31,-66 14,0 26,6 38,20l0 150zm64 62l0 -364 -64 0 0 115c-30,-22 -46,-30 -64,-30 -49,0 -70,38 -70,109l0 67c0,71 20,109 70,109 28,0 56,-21 68,-38l1 0 0 33 58 0z"/>
  <path class="fil0" d="M916 288l0 -64c0,-56 -42,-93 -101,-93 -61,0 -101,37 -101,97l0 90c0,60 40,97 101,97 64,0 98,-33 101,-90l-64 0c0,21 -11,38 -37,38 -21,0 -37,-12 -37,-39l0 -36 138 0zm-138 -51l0 -15c0,-24 12,-39 37,-39 26,0 37,15 37,39l0 15 -75 0z"/>
  <path class="fil0" d="M1013 215c0,-20 16,-34 35,-34 18,0 33,9 33,33l0 20c-79,24 -140,51 -140,114 0,44 25,66 63,66 32,0 57,-13 76,-32 2,11 3,20 5,27l64 0c-2,-7 -4,-15 -4,-22l0 -174c0,-49 -26,-83 -93,-83 -51,0 -97,24 -102,85l64 0zm68 127c-15,15 -29,25 -48,25 -17,0 -28,-11 -28,-29 0,-29 38,-50 76,-63l0 67z"/>
  <polygon class="fil1 str0" points="200,401 200,232 201,232 249,401 313,401 361,232 362,232 362,401 442,401 442,136 321,136 281,295 280,295 241,136 119,136 119,402 "/>
  <path class="fil2" d="M115 107l16 0 0 -75 -16 0 0 75zm16 -105l-16 0 0 15 16 0 0 -15z"/>
  <path class="fil2" d="M168 49c3,-3 8,-7 12,-7 6,0 7,4 7,9l0 56 16 0 0 -58c0,-14 -5,-19 -16,-19 -8,0 -15,6 -21,11l0 -10 -16 0 0 75 16 0 0 -58z"/>
  <path class="fil2" d="M243 30c-12,0 -24,7 -24,21 0,12 8,18 17,22l6 3c5,2 11,6 11,12 0,5 -4,8 -9,8 -7,0 -12,-5 -14,-12l-14 4c8,18 18,21 28,21 15,0 25,-8 25,-23 0,-23 -35,-22 -35,-35 0,-4 4,-8 8,-8 6,0 10,3 13,10l13 -5c-4,-11 -13,-18 -26,-18z"/>
  <path class="fil2" d="M285 94c0,10 7,14 18,14 3,0 6,0 9,-1l0 -13 -3 0c-5,0 -9,-2 -9,-6l0 -40 11 0 0 -13 -11 0 0 -21 -16 0 0 21 -7 0 0 13 7 0 0 46z"/>
  <path class="fil2" d="M327 107l16 0 0 -75 -16 0 0 75zm16 -105l-16 0 0 15 16 0 0 -15z"/>
  <path class="fil2" d="M363 94c0,10 7,14 18,14 3,0 6,0 9,-1l0 -13 -3 0c-5,0 -9,-2 -9,-6l0 -40 11 0 0 -13 -11 0 0 -21 -16 0 0 21 -7 0 0 13 7 0 0 46z"/>
  <path class="fil2" d="M439 89c-3,3 -8,7 -12,7 -6,0 -7,-4 -7,-9l0 -56 -16 0 0 58c0,14 5,19 16,19 8,0 15,-6 21,-11l0 10 16 0 0 -75 -16 0 0 58z"/>
  <path class="fil2" d="M474 94c0,10 7,14 18,14 3,0 6,0 9,-1l0 -13 -3 0c-5,0 -9,-2 -9,-6l0 -40 11 0 0 -13 -11 0 0 -21 -16 0 0 21 -7 0 0 13 7 0 0 46z"/>
  <path class="fil2" d="M567 55c0,-15 -11,-25 -28,-25 -17,0 -28,10 -28,27l0 25c0,16 11,27 28,27 17,0 26,-9 27,-24l-16 0c0,6 -4,11 -11,11 -6,0 -11,-4 -11,-12l0 -11 39 0 0 -17zm-39 -1c0,-7 4,-12 11,-12 8,0 11,5 11,12l0 5 -23 0 0 -5z"/>
  <path class="fil2" d="M117 552c-6,-28 -25,-48 -55,-48 -28,0 -50,20 -50,48 0,49 70,61 70,92 0,10 -7,16 -17,16 -17,0 -22,-13 -25,-28l-33 9c6,31 24,50 57,50 30,0 52,-16 52,-48 0,-53 -70,-65 -70,-93 0,-9 7,-14 16,-14 12,0 19,8 21,22l32 -5z"/>
  <path class="fil3" d="M223 630c0,21 -7,29 -21,29 -13,0 -21,-9 -21,-29l0 -66c0,-21 7,-29 21,-29 13,0 21,9 21,29l0 66zm-79 -7c0,39 15,67 58,67 43,0 58,-27 58,-67l0 -53c0,-39 -15,-67 -58,-67 -43,0 -58,27 -58,67l0 53z"/>
  <path class="fil2" d="M302 687l37 0 0 -149 21 0 0 -31 -21 0 0 -22c0,-9 3,-12 12,-12l11 0 0 -31 -19 0c-26,0 -42,13 -42,42l0 22 -22 0 0 31 22 0 0 149z"/>
  <path class="fil2" d="M393 538l0 112c0,27 16,40 44,40 9,0 14,-1 19,-2l0 -32 -12 0c-9,0 -13,-5 -13,-15l0 -103 25 0 0 -31 -25 0 0 -48 -37 0 0 48 -21 0 0 31 21 0z"/>
  <polygon class="fil2" points="517,620 516,620 500,508 464,508 499,687 529,687 553,574 554,574 574,687 604,687 646,508 610,508 589,620 588,620 568,508 541,508 "/>
  <path class="fil3" d="M699 560c1,-15 4,-25 21,-25 12,0 18,8 18,23l0 11c-54,20 -80,42 -80,81 0,23 13,40 38,40 18,0 30,-6 44,-17 0,4 2,9 2,14l36 0c-1,-6 -2,-13 -2,-19l0 -115c0,-33 -20,-49 -54,-49 -35,0 -58,20 -60,56l37 0zm40 83c-6,9 -15,17 -25,17 -11,0 -17,-5 -17,-16 0,-16 8,-28 42,-47l0 47z"/>
  <path class="fil2" d="M851 687l0 -123c0,-16 12,-24 25,-24 11,0 17,2 24,4l0 -39 -8 0c-18,0 -33,9 -42,24l-1 0 0 -21 -36 0 0 179 37 0z"/>
  <path class="fil3" d="M960 574l0 -9c0,-21 7,-29 21,-29 13,0 21,9 21,29l0 9 -41 0zm79 -3c0,-39 -15,-67 -58,-67 -43,0 -58,27 -58,67l0 53c0,39 15,67 58,67 42,0 57,-26 58,-64l-37 0 0 4c0,21 -7,29 -21,29 -13,0 -21,-9 -21,-29l0 -26 79 0 0 -33z"/>
 </g>
</svg>
